<svg width="32px" height="32px" viewBox="0 0 569 569" fill="none" xmlns="http://www.w3.org/2000/svg">
<path d="M358.256 0H0V568.832H568.832V210.577C568.832 94.3218 474.559 0 358.256 0ZM418.645 434.234H351.371V264.868C351.371 245.296 345.174 229.215 332.733 216.576C320.291 203.938 304.308 197.643 284.736 197.643C271.655 197.643 260.049 200.495 249.869 206.2C239.689 211.904 231.723 219.871 226.018 230.051C220.314 240.23 217.461 251.885 217.461 264.917V434.283H150.187V140.745H217.461V174.136C225.576 164.448 235.165 156.137 246.525 149.597C263.835 139.614 283.31 134.598 304.898 134.598C326.93 134.598 346.502 140.204 363.616 151.416C380.729 162.629 394.204 177.087 403.99 194.84C413.776 212.593 418.694 231.034 418.694 250.164V434.234H418.645Z" fill="white"/>
</svg>
