<svg width="36" height="32" viewBox="0 0 61 48" fill="none" xmlns="http://www.w3.org/2000/svg">
<path d="M0.77314 18.5078C0.368819 16.122 2.20727 13.9458 4.62701 13.9458H55.6253C58.045 13.9458 59.8835 16.122 59.4792 18.5078L56.6283 35.3294C55.9802 39.1533 53.1321 42.2321 49.3701 43.1753L31.3144 47.7021C30.5343 47.8977 29.718 47.8977 28.9379 47.7021L10.8822 43.1753C7.12022 42.2321 4.27205 39.1533 3.62399 35.3294L0.77314 18.5078Z" fill="#DC3115"/>
<path d="M27.3198 9.36863C29.1176 9.74531 30.554 10.5771 31.4415 11.8306C32.3358 13.0937 32.5816 14.6564 32.2377 16.2978C31.8388 18.202 30.7607 19.6002 29.1562 20.2808L30.3851 24.3448L30.3862 24.349C30.5339 24.8433 30.5663 25.5378 30.074 26.0726C29.5821 26.6068 28.8878 26.6322 28.3844 26.5268L26.8733 26.2102C26.5105 26.1341 26.1441 25.9815 25.833 25.6989C25.521 25.4154 25.3311 25.0611 25.2243 24.6893L23.9582 20.3462L23.3904 20.2272L22.7227 23.4139C22.6294 23.8595 22.4014 24.3357 21.9326 24.6422C21.4637 24.9487 20.936 24.9662 20.4904 24.8728L19.1522 24.5925C18.7066 24.4991 18.2304 24.2712 17.9239 23.8023C17.6175 23.3334 17.5999 22.8057 17.6933 22.3601L20.3189 9.82851C20.4123 9.3829 20.6401 8.90664 21.109 8.60018C21.5779 8.29372 22.1056 8.27621 22.5512 8.36954L27.3198 9.36863ZM24.3206 15.7875L25.3443 16.002C26.0907 16.1583 26.4874 16.077 26.6822 15.974C26.8338 15.8936 27.0147 15.7202 27.1184 15.2252C27.2235 14.7233 27.1299 14.4649 27.0118 14.3099C26.872 14.1263 26.5422 13.8842 25.8054 13.7299L24.796 13.5184L24.3206 15.7875Z" fill="white" stroke="#DC3115" stroke-width="2.07168"/>
<path d="M14.1245 9.14912C15.9868 9.14912 17.5657 9.72809 18.6831 10.821C19.801 11.9144 20.3589 13.4267 20.3589 15.1003C20.3588 16.7861 19.7878 18.2952 18.6499 19.3796C17.5159 20.46 15.9207 21.0221 14.0474 21.0222H12.5054V23.8386C12.5054 24.2938 12.3799 24.8067 11.9839 25.2028C11.5878 25.5989 11.0749 25.7243 10.6196 25.7243H9.25244C8.79716 25.7243 8.28429 25.5989 7.88818 25.2028C7.49214 24.8067 7.3667 24.2939 7.3667 23.8386V11.0349C7.36673 10.5796 7.49208 10.0667 7.88818 9.6706C8.28429 9.2745 8.79716 9.14915 9.25244 9.14912H14.1245ZM12.5054 16.4929H13.5513C14.2365 16.4929 14.5996 16.3031 14.7896 16.1159C14.9792 15.9289 15.1283 15.6143 15.1284 15.1003C15.1284 14.582 14.9791 14.277 14.7944 14.0983C14.6062 13.9163 14.239 13.7282 13.5366 13.7282H12.5054V16.4929Z" fill="white" stroke="#DC3115" stroke-width="2.07168"/>
<path d="M38.642 8.49658C39.0874 8.40245 39.6151 8.41912 40.0846 8.72474C40.554 9.03038 40.7827 9.50626 40.8769 9.9517L41.0483 10.7629C41.1424 11.2083 41.1258 11.7361 40.8201 12.2055C40.5144 12.6748 40.0386 12.9036 39.5932 12.9978L34.877 13.9944L35.1631 15.3483L39.3872 14.4556C39.8327 14.3615 40.3603 14.3781 40.8298 14.6838C41.2993 14.9895 41.528 15.4653 41.6221 15.9108L41.7933 16.721C41.8875 17.1665 41.8708 17.6941 41.5652 18.1636C41.2595 18.6331 40.7837 18.8617 40.3382 18.9559L36.1141 19.8485L36.4018 21.21L41.1457 20.2076C41.5911 20.1134 42.1187 20.1293 42.5881 20.4348C43.0576 20.7404 43.2864 21.2172 43.3806 21.6627L43.5518 22.4729C43.6459 22.9184 43.6293 23.446 43.3236 23.9155C43.0179 24.385 42.5422 24.6136 42.0967 24.7078L34.1702 26.3828C33.7247 26.4769 33.197 26.4603 32.7276 26.1547C32.2582 25.849 32.0294 25.3731 31.9353 24.9277L29.2881 12.4006C29.194 11.9552 29.2106 11.4275 29.5162 10.958C29.8219 10.4886 30.2977 10.2599 30.7432 10.1658L38.642 8.49658Z" fill="white" stroke="#DC3115" stroke-width="2.07168"/>
<path d="M47.633 9.14912C49.4953 9.14912 51.0742 9.72809 52.1916 10.821C53.3095 11.9144 53.8674 13.4267 53.8674 15.1003C53.8673 16.7861 53.2963 18.2952 52.1584 19.3796C51.0244 20.46 49.4292 21.0221 47.5558 21.0222H46.0139V23.8386C46.0139 24.2938 45.8884 24.8067 45.4924 25.2028C45.0963 25.5989 44.5834 25.7243 44.1281 25.7243H42.7609C42.3056 25.7243 41.7928 25.5989 41.3967 25.2028C41.0006 24.8067 40.8752 24.2939 40.8752 23.8386V11.0349C40.8752 10.5796 41.0006 10.0667 41.3967 9.6706C41.7928 9.2745 42.3056 9.14915 42.7609 9.14912H47.633ZM46.0139 16.4929H47.0598C47.745 16.4929 48.1081 16.3031 48.298 16.1159C48.4877 15.9289 48.6368 15.6143 48.6369 15.1003C48.6369 14.582 48.4876 14.277 48.3029 14.0983C48.1147 13.9163 47.7475 13.7282 47.0451 13.7282H46.0139V16.4929Z" fill="white" stroke="#DC3115" stroke-width="2.07168"/>
<mask id="path-6-outside-1_3612_598" maskUnits="userSpaceOnUse" x="8.33124" y="27.5151" width="44" height="11" fill="black">
<rect fill="white" x="8.33124" y="27.5151" width="44" height="11"/>
<path d="M10.9837 36.6355C10.3721 36.6355 10.0206 36.2792 10.0206 35.6243V30.3901C10.0206 29.7737 10.3577 29.4463 10.9837 29.4463C11.3545 29.4463 11.6386 29.6148 11.9323 30.0048L14.287 33.1685H14.3255V30.4575C14.3255 29.8026 14.6818 29.4463 15.2886 29.4463C15.9001 29.4463 16.2516 29.8026 16.2516 30.4575V35.6917C16.2516 36.3033 15.9194 36.6355 15.3127 36.6355C14.9226 36.6355 14.6481 36.4718 14.3592 36.077L11.9853 32.8555H11.9468V35.6243C11.9468 36.2792 11.5904 36.6355 10.9837 36.6355ZM19.8566 36.6355C17.7041 36.6355 16.3558 35.2632 16.3558 33.0433C16.3558 30.8234 17.7089 29.4463 19.8566 29.4463C22.0042 29.4463 23.3573 30.8234 23.3573 33.0433C23.3573 35.2632 22.0042 36.6355 19.8566 36.6355ZM19.8566 35.008C20.7137 35.008 21.2771 34.2423 21.2771 33.0433C21.2771 31.8395 20.7089 31.0738 19.8566 31.0738C19.0043 31.0738 18.4361 31.8395 18.4361 33.0433C18.4361 34.2423 18.9995 35.008 19.8566 35.008ZM26.5241 36.6355C24.6894 36.6355 23.4615 35.6243 23.4615 34.0401V30.5153C23.4615 29.8315 23.8323 29.4463 24.4824 29.4463C25.1324 29.4463 25.5032 29.8315 25.5032 30.5153V33.8138C25.5032 34.5457 25.8644 34.9454 26.5241 34.9454C27.1838 34.9454 27.5449 34.5457 27.5449 33.8138V30.5153C27.5449 29.8315 27.9157 29.4463 28.5658 29.4463C29.2158 29.4463 29.5866 29.8315 29.5866 30.5153V34.0401C29.5866 35.6243 28.3587 36.6355 26.5241 36.6355ZM30.8802 36.6355C30.2301 36.6355 29.8593 36.2503 29.8593 35.5665V30.6356C29.8593 29.9519 30.2301 29.5666 30.8802 29.5666H32.946C34.7998 29.5666 35.7533 30.4382 35.7533 31.9262C35.7533 32.6966 35.4258 33.4237 34.7661 33.8089L35.4933 35.0031C35.6714 35.3017 35.7099 35.4606 35.7099 35.7014C35.7099 36.2455 35.2862 36.6355 34.6939 36.6355C34.1931 36.6355 33.9909 36.4574 33.6297 35.8169L32.7148 34.1845H31.901V35.5665C31.901 36.2503 31.5302 36.6355 30.8802 36.6355ZM31.901 32.8362H32.7437C33.3167 32.8362 33.6682 32.4847 33.6682 31.9599C33.6682 31.4446 33.2975 31.0738 32.7485 31.0738H31.901V32.8362ZM36.912 36.6355C36.262 36.6355 35.8912 36.2503 35.8912 35.5665V30.5153C35.8912 29.8315 36.262 29.4463 36.912 29.4463C37.5621 29.4463 37.9329 29.8315 37.9329 30.5153V35.5665C37.9329 36.2503 37.5621 36.6355 36.912 36.6355ZM41.0081 36.6355C39.4432 36.6355 38.5379 36.0721 38.2393 35.3932C38.1671 35.2343 38.1334 35.0706 38.1334 34.9116C38.1334 34.4205 38.5042 34.0834 39.0098 34.0834C39.395 34.0834 39.655 34.2038 39.9295 34.589C40.1703 34.9309 40.5748 35.0706 41.0322 35.0706C41.6438 35.0706 42.0194 34.8202 42.0194 34.4783C42.0194 34.1508 41.7497 34.0112 40.9696 33.8715L40.2714 33.7463C38.8894 33.5008 38.1334 32.8025 38.1334 31.7239C38.1334 30.3275 39.3372 29.4463 40.9889 29.4463C42.3661 29.4463 43.3532 29.9326 43.7143 30.7994C43.7721 30.939 43.801 31.069 43.801 31.2279C43.801 31.6902 43.4639 32.0032 42.9535 32.008C42.5201 32.008 42.2457 31.8587 42.0001 31.488C41.7738 31.1413 41.4511 31.0112 41.013 31.0112C40.4447 31.0112 40.1558 31.2616 40.1558 31.5746C40.1558 31.8876 40.4544 32.0369 41.1478 32.1621L41.846 32.2873C43.3388 32.557 44.0418 33.1685 44.0418 34.2953C44.0418 35.7254 42.9246 36.6355 41.0081 36.6355ZM45.1331 36.6355C44.4831 36.6355 44.1123 36.2503 44.1123 35.5665V30.5153C44.1123 29.8315 44.4831 29.4463 45.1331 29.4463C45.7832 29.4463 46.154 29.8315 46.154 30.5153V32.2054H48.6002V30.5153C48.6002 29.8315 48.9709 29.4463 49.621 29.4463C50.2711 29.4463 50.6419 29.8315 50.6419 30.5153V35.5665C50.6419 36.2503 50.2711 36.6355 49.621 36.6355C48.9709 36.6355 48.6002 36.2503 48.6002 35.5665V33.8282H46.154V35.5665C46.154 36.2503 45.7832 36.6355 45.1331 36.6355Z"/>
</mask>
<path d="M10.9837 36.6355C10.3721 36.6355 10.0206 36.2792 10.0206 35.6243V30.3901C10.0206 29.7737 10.3577 29.4463 10.9837 29.4463C11.3545 29.4463 11.6386 29.6148 11.9323 30.0048L14.287 33.1685H14.3255V30.4575C14.3255 29.8026 14.6818 29.4463 15.2886 29.4463C15.9001 29.4463 16.2516 29.8026 16.2516 30.4575V35.6917C16.2516 36.3033 15.9194 36.6355 15.3127 36.6355C14.9226 36.6355 14.6481 36.4718 14.3592 36.077L11.9853 32.8555H11.9468V35.6243C11.9468 36.2792 11.5904 36.6355 10.9837 36.6355ZM19.8566 36.6355C17.7041 36.6355 16.3558 35.2632 16.3558 33.0433C16.3558 30.8234 17.7089 29.4463 19.8566 29.4463C22.0042 29.4463 23.3573 30.8234 23.3573 33.0433C23.3573 35.2632 22.0042 36.6355 19.8566 36.6355ZM19.8566 35.008C20.7137 35.008 21.2771 34.2423 21.2771 33.0433C21.2771 31.8395 20.7089 31.0738 19.8566 31.0738C19.0043 31.0738 18.4361 31.8395 18.4361 33.0433C18.4361 34.2423 18.9995 35.008 19.8566 35.008ZM26.5241 36.6355C24.6894 36.6355 23.4615 35.6243 23.4615 34.0401V30.5153C23.4615 29.8315 23.8323 29.4463 24.4824 29.4463C25.1324 29.4463 25.5032 29.8315 25.5032 30.5153V33.8138C25.5032 34.5457 25.8644 34.9454 26.5241 34.9454C27.1838 34.9454 27.5449 34.5457 27.5449 33.8138V30.5153C27.5449 29.8315 27.9157 29.4463 28.5658 29.4463C29.2158 29.4463 29.5866 29.8315 29.5866 30.5153V34.0401C29.5866 35.6243 28.3587 36.6355 26.5241 36.6355ZM30.8802 36.6355C30.2301 36.6355 29.8593 36.2503 29.8593 35.5665V30.6356C29.8593 29.9519 30.2301 29.5666 30.8802 29.5666H32.946C34.7998 29.5666 35.7533 30.4382 35.7533 31.9262C35.7533 32.6966 35.4258 33.4237 34.7661 33.8089L35.4933 35.0031C35.6714 35.3017 35.7099 35.4606 35.7099 35.7014C35.7099 36.2455 35.2862 36.6355 34.6939 36.6355C34.1931 36.6355 33.9909 36.4574 33.6297 35.8169L32.7148 34.1845H31.901V35.5665C31.901 36.2503 31.5302 36.6355 30.8802 36.6355ZM31.901 32.8362H32.7437C33.3167 32.8362 33.6682 32.4847 33.6682 31.9599C33.6682 31.4446 33.2975 31.0738 32.7485 31.0738H31.901V32.8362ZM36.912 36.6355C36.262 36.6355 35.8912 36.2503 35.8912 35.5665V30.5153C35.8912 29.8315 36.262 29.4463 36.912 29.4463C37.5621 29.4463 37.9329 29.8315 37.9329 30.5153V35.5665C37.9329 36.2503 37.5621 36.6355 36.912 36.6355ZM41.0081 36.6355C39.4432 36.6355 38.5379 36.0721 38.2393 35.3932C38.1671 35.2343 38.1334 35.0706 38.1334 34.9116C38.1334 34.4205 38.5042 34.0834 39.0098 34.0834C39.395 34.0834 39.655 34.2038 39.9295 34.589C40.1703 34.9309 40.5748 35.0706 41.0322 35.0706C41.6438 35.0706 42.0194 34.8202 42.0194 34.4783C42.0194 34.1508 41.7497 34.0112 40.9696 33.8715L40.2714 33.7463C38.8894 33.5008 38.1334 32.8025 38.1334 31.7239C38.1334 30.3275 39.3372 29.4463 40.9889 29.4463C42.3661 29.4463 43.3532 29.9326 43.7143 30.7994C43.7721 30.939 43.801 31.069 43.801 31.2279C43.801 31.6902 43.4639 32.0032 42.9535 32.008C42.5201 32.008 42.2457 31.8587 42.0001 31.488C41.7738 31.1413 41.4511 31.0112 41.013 31.0112C40.4447 31.0112 40.1558 31.2616 40.1558 31.5746C40.1558 31.8876 40.4544 32.0369 41.1478 32.1621L41.846 32.2873C43.3388 32.557 44.0418 33.1685 44.0418 34.2953C44.0418 35.7254 42.9246 36.6355 41.0081 36.6355ZM45.1331 36.6355C44.4831 36.6355 44.1123 36.2503 44.1123 35.5665V30.5153C44.1123 29.8315 44.4831 29.4463 45.1331 29.4463C45.7832 29.4463 46.154 29.8315 46.154 30.5153V32.2054H48.6002V30.5153C48.6002 29.8315 48.9709 29.4463 49.621 29.4463C50.2711 29.4463 50.6419 29.8315 50.6419 30.5153V35.5665C50.6419 36.2503 50.2711 36.6355 49.621 36.6355C48.9709 36.6355 48.6002 36.2503 48.6002 35.5665V33.8282H46.154V35.5665C46.154 36.2503 45.7832 36.6355 45.1331 36.6355Z" fill="#DC3115"/>
<path d="M11.9323 30.0048L13.1709 29.083L13.1657 29.076L11.9323 30.0048ZM14.287 33.1685L13.0484 34.0904L13.5115 34.7125H14.287V33.1685ZM14.3255 33.1685V34.7125H15.8695V33.1685H14.3255ZM14.3592 36.077L15.6053 35.1652L15.6022 35.161L14.3592 36.077ZM11.9853 32.8555L13.2282 31.9396L12.7654 31.3115H11.9853V32.8555ZM11.9468 32.8555V31.3115H10.4028V32.8555H11.9468ZM10.9837 36.6355V35.0915C10.9772 35.0915 11.1849 35.0964 11.3859 35.3055C11.5785 35.5058 11.5646 35.6862 11.5646 35.6243H10.0206H8.47664C8.47664 36.2173 8.63854 36.9033 9.15972 37.4455C9.68941 37.9965 10.3786 38.1795 10.9837 38.1795V36.6355ZM10.0206 35.6243H11.5646V30.3901H10.0206H8.47664V35.6243H10.0206ZM10.0206 30.3901H11.5646C11.5646 30.3555 11.5695 30.5733 11.3468 30.791C11.1299 31.0031 10.9261 30.9903 10.9837 30.9903V29.4463V27.9023C10.4153 27.9023 9.72991 28.0532 9.18798 28.5831C8.64032 29.1186 8.47664 29.8082 8.47664 30.3901H10.0206ZM10.9837 29.4463V30.9903C10.9578 30.9903 10.9122 30.9871 10.8548 30.972C10.7964 30.9567 10.7443 30.9338 10.7025 30.9092C10.6245 30.8632 10.626 30.8368 10.6989 30.9337L11.9323 30.0048L13.1657 29.076C12.9449 28.7828 12.6575 28.4772 12.2713 28.2494C11.8622 28.0081 11.4241 27.9023 10.9837 27.9023V29.4463ZM11.9323 30.0048L10.6937 30.9267L13.0484 34.0904L14.287 33.1685L15.5256 32.2466L13.1709 29.083L11.9323 30.0048ZM14.287 33.1685V34.7125H14.3255V33.1685V31.6245H14.287V33.1685ZM14.3255 33.1685H15.8695V30.4575H14.3255H12.7815V33.1685H14.3255ZM14.3255 30.4575H15.8695C15.8695 30.401 15.8817 30.5804 15.6907 30.7783C15.4923 30.9839 15.2874 30.9903 15.2886 30.9903V29.4463V27.9023C14.6831 27.9023 13.9965 28.0868 13.4684 28.6343C12.9475 29.1741 12.7815 29.8591 12.7815 30.4575H14.3255ZM15.2886 29.4463V30.9903C15.2951 30.9903 15.0874 30.9854 14.8863 30.7763C14.6938 30.576 14.7077 30.3955 14.7077 30.4575H16.2516H17.7956C17.7956 29.8645 17.6337 29.1785 17.1125 28.6363C16.5829 28.0853 15.8936 27.9023 15.2886 27.9023V29.4463ZM16.2516 30.4575H14.7077V35.6917H16.2516H17.7956V30.4575H16.2516ZM16.2516 35.6917H14.7077C14.7077 35.727 14.7018 35.5181 14.9158 35.3033C15.1307 35.0876 15.3423 35.0915 15.3127 35.0915V36.6355V38.1795C15.8897 38.1795 16.5708 38.0174 17.1035 37.4827C17.6353 36.9488 17.7956 36.268 17.7956 35.6917H16.2516ZM15.3127 36.6355V35.0915C15.324 35.0915 15.3627 35.0928 15.4183 35.1069C15.476 35.1215 15.5322 35.1449 15.5809 35.1735C15.6726 35.2275 15.6784 35.2652 15.6053 35.1652L14.3592 36.077L13.1132 36.9887C13.329 37.2836 13.6164 37.6006 14.0152 37.8351C14.4383 38.084 14.8824 38.1795 15.3127 38.1795V36.6355ZM14.3592 36.077L15.6022 35.161L13.2282 31.9396L11.9853 32.8555L10.7423 33.7715L13.1163 36.9929L14.3592 36.077ZM11.9853 32.8555V31.3115H11.9468V32.8555V34.3995H11.9853V32.8555ZM11.9468 32.8555H10.4028V35.6243H11.9468H13.4907V32.8555H11.9468ZM11.9468 35.6243H10.4028C10.4028 35.6808 10.3906 35.5014 10.5816 35.3035C10.7799 35.0979 10.9849 35.0915 10.9837 35.0915V36.6355V38.1795C11.5892 38.1795 12.2757 37.995 12.8039 37.4475C13.3247 36.9077 13.4907 36.2227 13.4907 35.6243H11.9468ZM19.8566 36.6355V35.0915C19.1151 35.0915 18.6671 34.8628 18.4036 34.593C18.1362 34.3193 17.8998 33.8398 17.8998 33.0433H16.3558H14.8119C14.8119 34.4666 15.2496 35.7833 16.1945 36.7507C17.1433 37.7221 18.4456 38.1795 19.8566 38.1795V36.6355ZM16.3558 33.0433H17.8998C17.8998 32.2481 18.1367 31.7665 18.4059 31.4906C18.6712 31.2188 19.1198 30.9903 19.8566 30.9903V29.4463V27.9023C18.4457 27.9023 17.144 28.3623 16.1958 29.334C15.2516 30.3017 14.8119 31.6186 14.8119 33.0433H16.3558ZM19.8566 29.4463V30.9903C20.5933 30.9903 21.042 31.2188 21.3073 31.4906C21.5765 31.7665 21.8133 32.2481 21.8133 33.0433H23.3573H24.9013C24.9013 31.6186 24.4616 30.3017 23.5174 29.334C22.5692 28.3623 21.2675 27.9023 19.8566 27.9023V29.4463ZM23.3573 33.0433H21.8133C21.8133 33.8383 21.5766 34.3181 21.3083 34.5925C21.0436 34.8632 20.5949 35.0915 19.8566 35.0915V36.6355V38.1795C21.2659 38.1795 22.5676 37.7217 23.5163 36.7512C24.4615 35.7845 24.9013 34.4681 24.9013 33.0433H23.3573ZM19.8566 35.008V36.5519C20.8022 36.5519 21.6125 36.1051 22.1373 35.3829C22.6307 34.7038 22.8211 33.8637 22.8211 33.0433H21.2771H19.7331C19.7331 33.2242 19.7117 33.357 19.6871 33.4461C19.6625 33.5355 19.6383 33.5689 19.6392 33.5677C19.6423 33.5634 19.6687 33.5306 19.7255 33.5009C19.7841 33.4704 19.8351 33.464 19.8566 33.464V35.008ZM21.2771 33.0433H22.8211C22.8211 32.2189 22.6288 31.378 22.1352 30.6991C21.6112 29.9785 20.802 29.5299 19.8566 29.5299V31.0738V32.6178C19.8325 32.6178 19.7806 32.6108 19.7223 32.5803C19.6658 32.5507 19.6401 32.5185 19.6377 32.5151C19.6373 32.5147 19.6619 32.5488 19.6867 32.6388C19.7115 32.7284 19.7331 32.8618 19.7331 33.0433H21.2771ZM19.8566 31.0738V29.5299C18.9112 29.5299 18.1019 29.9785 17.5779 30.6991C17.0843 31.378 16.8921 32.2189 16.8921 33.0433H18.4361H19.98C19.98 32.8618 20.0017 32.7284 20.0264 32.6388C20.0513 32.5488 20.0758 32.5147 20.0755 32.5151C20.073 32.5185 20.0474 32.5507 19.9909 32.5803C19.9326 32.6108 19.8806 32.6178 19.8566 32.6178V31.0738ZM18.4361 33.0433H16.8921C16.8921 33.8637 17.0824 34.7038 17.5758 35.3829C18.1006 36.1051 18.911 36.5519 19.8566 36.5519V35.008V33.464C19.8781 33.464 19.9291 33.4704 19.9876 33.5009C20.0445 33.5306 20.0709 33.5634 20.074 33.5677C20.0749 33.5689 20.0507 33.5355 20.026 33.4461C20.0015 33.357 19.98 33.2242 19.98 33.0433H18.4361ZM26.5241 36.6355V35.0915C25.8792 35.0915 25.4939 34.9144 25.2983 34.75C25.1295 34.6081 25.0055 34.401 25.0055 34.0401H23.4615H21.9175C21.9175 35.2634 22.4075 36.354 23.3113 37.1138C24.1883 37.851 25.3343 38.1795 26.5241 38.1795V36.6355ZM23.4615 34.0401H25.0055V30.5153H23.4615H21.9175V34.0401H23.4615ZM23.4615 30.5153H25.0055C25.0055 30.4425 25.0224 30.6051 24.8437 30.7918C24.6556 30.9884 24.4638 30.9903 24.4824 30.9903V29.4463V27.9023C23.8508 27.9023 23.1487 28.0967 22.6127 28.6569C22.0861 29.2071 21.9175 29.9043 21.9175 30.5153H23.4615ZM24.4824 29.4463V30.9903C24.5009 30.9903 24.3092 30.9884 24.1211 30.7918C23.9424 30.6051 23.9592 30.4425 23.9592 30.5153H25.5032H27.0472C27.0472 29.9043 26.8787 29.2071 26.3521 28.6569C25.816 28.0967 25.1139 27.9023 24.4824 27.9023V29.4463ZM25.5032 30.5153H23.9592V33.8138H25.5032H27.0472V30.5153H25.5032ZM25.5032 33.8138H23.9592C23.9592 34.4134 24.1067 35.1197 24.62 35.6885C25.1564 36.2828 25.8755 36.4893 26.5241 36.4893V34.9454V33.4014C26.513 33.4014 26.5607 33.3996 26.6425 33.4312C26.7306 33.4652 26.829 33.5271 26.9124 33.6196C27.0803 33.8056 27.0472 33.9461 27.0472 33.8138H25.5032ZM26.5241 34.9454V36.4893C27.1726 36.4893 27.8917 36.2828 28.4281 35.6885C28.9415 35.1197 29.0889 34.4134 29.0889 33.8138H27.5449H26.0009C26.0009 33.9461 25.9678 33.8056 26.1357 33.6196C26.2192 33.5271 26.3175 33.4652 26.4056 33.4312C26.4874 33.3996 26.5351 33.4014 26.5241 33.4014V34.9454ZM27.5449 33.8138H29.0889V30.5153H27.5449H26.0009V33.8138H27.5449ZM27.5449 30.5153H29.0889C29.0889 30.4425 29.1057 30.6051 28.9271 30.7918C28.7389 30.9884 28.5472 30.9903 28.5658 30.9903V29.4463V27.9023C27.9342 27.9023 27.2321 28.0967 26.696 28.6569C26.1695 29.2071 26.0009 29.9043 26.0009 30.5153H27.5449ZM28.5658 29.4463V30.9903C28.5843 30.9903 28.3926 30.9884 28.2044 30.7918C28.0258 30.6051 28.0426 30.4425 28.0426 30.5153H29.5866H31.1306C31.1306 29.9043 30.962 29.2071 30.4355 28.6569C29.8994 28.0967 29.1973 27.9023 28.5658 27.9023V29.4463ZM29.5866 30.5153H28.0426V34.0401H29.5866H31.1306V30.5153H29.5866ZM29.5866 34.0401H28.0426C28.0426 34.401 27.9186 34.6081 27.7498 34.75C27.5542 34.9144 27.1689 35.0915 26.5241 35.0915V36.6355V38.1795C27.7138 38.1795 28.8598 37.851 29.7368 37.1138C30.6406 36.354 31.1306 35.2634 31.1306 34.0401H29.5866ZM34.7661 33.8089L33.9876 32.4756L32.6295 33.2687L33.4474 34.6119L34.7661 33.8089ZM35.4933 35.0031L36.8191 34.2119L36.812 34.2002L35.4933 35.0031ZM33.6297 35.8169L32.2829 36.5718L32.2848 36.5753L33.6297 35.8169ZM32.7148 34.1845L34.0617 33.4297L33.6194 32.6405H32.7148V34.1845ZM31.901 34.1845V32.6405H30.357V34.1845H31.901ZM31.901 32.8362H30.357V34.3802H31.901V32.8362ZM31.901 31.0738V29.5299H30.357V31.0738H31.901ZM30.8802 36.6355V35.0915C30.8617 35.0915 31.0534 35.0934 31.2415 35.29C31.4202 35.4767 31.4033 35.6393 31.4033 35.5665H29.8593H28.3153C28.3153 36.1775 28.4839 36.8747 29.0105 37.4249C29.5465 37.9851 30.2486 38.1795 30.8802 38.1795V36.6355ZM29.8593 35.5665H31.4033V30.6356H29.8593H28.3153V35.5665H29.8593ZM29.8593 30.6356H31.4033C31.4033 30.5629 31.4202 30.7255 31.2415 30.9122C31.0534 31.1088 30.8617 31.1106 30.8802 31.1106V29.5666V28.0227C30.2486 28.0227 29.5465 28.2171 29.0105 28.7772C28.4839 29.3275 28.3153 30.0246 28.3153 30.6356H29.8593ZM30.8802 29.5666V31.1106H32.946V29.5666V28.0227H30.8802V29.5666ZM32.946 29.5666V31.1106C33.6553 31.1106 33.9454 31.2794 34.0387 31.3595C34.0951 31.4081 34.2093 31.5274 34.2093 31.9262H35.7533H37.2973C37.2973 30.8369 36.9347 29.7766 36.051 29.0173C35.2041 28.2897 34.0905 28.0227 32.946 28.0227V29.5666ZM35.7533 31.9262H34.2093C34.2093 32.2833 34.0668 32.4293 33.9876 32.4756L34.7661 33.8089L35.5447 35.1423C36.7848 34.4181 37.2973 33.11 37.2973 31.9262H35.7533ZM34.7661 33.8089L33.4474 34.6119L34.1745 35.8061L35.4933 35.0031L36.812 34.2002L36.0849 33.006L34.7661 33.8089ZM35.4933 35.0031L34.1674 35.7944C34.1945 35.8398 34.2047 35.8606 34.2064 35.8642C34.2071 35.8657 34.1985 35.8476 34.1886 35.8145C34.1782 35.7796 34.1716 35.7451 34.1681 35.7162C34.1651 35.6908 34.166 35.6813 34.166 35.7014H35.7099H37.2539C37.2539 35.4896 37.2365 35.2299 37.1482 34.9333C37.0651 34.6542 36.9409 34.4161 36.8191 34.2119L35.4933 35.0031ZM35.7099 35.7014H34.166C34.166 35.5525 34.2329 35.3703 34.3788 35.2361C34.5165 35.1095 34.6497 35.0915 34.6939 35.0915V36.6355V38.1795C36.0147 38.1795 37.2539 37.2173 37.2539 35.7014H35.7099ZM34.6939 36.6355V35.0915C34.6547 35.0915 34.6994 35.0873 34.7849 35.1113C34.8298 35.1239 34.8802 35.1427 34.9324 35.1692C34.9846 35.1958 35.0288 35.2251 35.0644 35.2531C35.132 35.3064 35.1523 35.3422 35.127 35.3075C35.1004 35.2707 35.0535 35.1984 34.9746 35.0585L33.6297 35.8169L32.2848 36.5753C32.4648 36.8945 32.7323 37.3473 33.1545 37.6797C33.6779 38.0916 34.2375 38.1795 34.6939 38.1795V36.6355ZM33.6297 35.8169L34.9766 35.062L34.0617 33.4297L32.7148 34.1845L31.368 34.9394L32.2829 36.5718L33.6297 35.8169ZM32.7148 34.1845V32.6405H31.901V34.1845V35.7285H32.7148V34.1845ZM31.901 34.1845H30.357V35.5665H31.901H33.445V34.1845H31.901ZM31.901 35.5665H30.357C30.357 35.6393 30.3402 35.4767 30.5189 35.29C30.707 35.0934 30.8987 35.0915 30.8802 35.0915V36.6355V38.1795C31.5117 38.1795 32.2139 37.9851 32.7499 37.4249C33.2765 36.8747 33.445 36.1775 33.445 35.5665H31.901ZM31.901 32.8362V34.3802H32.7437V32.8362V31.2923H31.901V32.8362ZM32.7437 32.8362V34.3802C33.3476 34.3802 33.9903 34.1897 34.4914 33.7074C34.9975 33.2205 35.2122 32.5768 35.2122 31.9599H33.6682H32.1243C32.1243 31.8678 32.1633 31.6623 32.3503 31.4823C32.5325 31.307 32.7128 31.2923 32.7437 31.2923V32.8362ZM33.6682 31.9599H35.2122C35.2122 31.3202 34.9751 30.6885 34.4915 30.2175C34.0095 29.7482 33.3779 29.5299 32.7485 29.5299V31.0738V32.6178C32.6681 32.6178 32.4963 32.5849 32.337 32.4297C32.176 32.273 32.1243 32.0843 32.1243 31.9599H33.6682ZM32.7485 31.0738V29.5299H31.901V31.0738V32.6178H32.7485V31.0738ZM31.901 31.0738H30.357V32.8362H31.901H33.445V31.0738H31.901ZM36.912 36.6355V35.0915C36.8935 35.0915 37.0852 35.0934 37.2733 35.29C37.452 35.4767 37.4352 35.6393 37.4352 35.5665H35.8912H34.3472C34.3472 36.1775 34.5157 36.8747 35.0423 37.4249C35.5784 37.9851 36.2805 38.1795 36.912 38.1795V36.6355ZM35.8912 35.5665H37.4352V30.5153H35.8912H34.3472V35.5665H35.8912ZM35.8912 30.5153H37.4352C37.4352 30.4425 37.452 30.6051 37.2733 30.7918C37.0852 30.9884 36.8935 30.9903 36.912 30.9903V29.4463V27.9023C36.2805 27.9023 35.5784 28.0967 35.0423 28.6569C34.5157 29.2071 34.3472 29.9043 34.3472 30.5153H35.8912ZM36.912 29.4463V30.9903C36.9306 30.9903 36.7388 30.9884 36.5507 30.7918C36.372 30.6051 36.3889 30.4425 36.3889 30.5153H37.9329H39.4769C39.4769 29.9043 39.3083 29.2071 38.7817 28.6569C38.2457 28.0967 37.5436 27.9023 36.912 27.9023V29.4463ZM37.9329 30.5153H36.3889V35.5665H37.9329H39.4769V30.5153H37.9329ZM37.9329 35.5665H36.3889C36.3889 35.6393 36.372 35.4767 36.5507 35.29C36.7388 35.0934 36.9306 35.0915 36.912 35.0915V36.6355V38.1795C37.5436 38.1795 38.2457 37.9851 38.7817 37.4249C39.3083 36.8747 39.4769 36.1775 39.4769 35.5665H37.9329ZM38.2393 35.3932L39.6527 34.7717L39.6489 34.763L39.6449 34.7543L38.2393 35.3932ZM39.9295 34.589L41.1919 33.7L41.187 33.6931L39.9295 34.589ZM40.9696 33.8715L40.6971 35.3913L40.6975 35.3914L40.9696 33.8715ZM40.2714 33.7463L40.5439 32.2266L40.5415 32.2262L40.2714 33.7463ZM43.7143 30.7994L45.141 30.209L45.1396 30.2055L43.7143 30.7994ZM42.9535 32.008V33.552H42.9608L42.9681 33.5519L42.9535 32.008ZM42.0001 31.488L40.7072 32.332L40.7129 32.3405L42.0001 31.488ZM41.1478 32.1621L40.8734 33.6815L40.8753 33.6819L41.1478 32.1621ZM41.846 32.2873L42.1205 30.7679L42.1185 30.7676L41.846 32.2873ZM41.0081 36.6355V35.0915C39.73 35.0915 39.596 34.6428 39.6527 34.7717L38.2393 35.3932L36.826 36.0147C37.4797 37.5015 39.1564 38.1795 41.0081 38.1795V36.6355ZM38.2393 35.3932L39.6449 34.7543C39.6641 34.7964 39.6774 34.8505 39.6774 34.9116H38.1334H36.5894C36.5894 35.2906 36.6701 35.6722 36.8337 36.0321L38.2393 35.3932ZM38.1334 34.9116H39.6774C39.6774 35.0737 39.607 35.2818 39.4361 35.4415C39.2738 35.5932 39.1019 35.6274 39.0098 35.6274V34.0834V32.5394C37.7519 32.5394 36.5894 33.4707 36.5894 34.9116H38.1334ZM39.0098 34.0834V35.6274C39.0271 35.6274 39.0062 35.6289 38.9617 35.6196C38.913 35.6094 38.8514 35.5896 38.7875 35.5556C38.6558 35.4857 38.6217 35.4143 38.6721 35.485L39.9295 34.589L41.187 33.6931C40.9628 33.3785 40.6615 33.0543 40.2349 32.8279C39.7988 32.5965 39.368 32.5394 39.0098 32.5394V34.0834ZM39.9295 34.589L38.6671 35.478C39.3042 36.3826 40.2928 36.6145 41.0322 36.6145V35.0706V33.5266C40.9535 33.5266 40.9472 33.5137 40.9879 33.5305C41.0106 33.5398 41.0454 33.5575 41.0849 33.5881C41.1252 33.6194 41.162 33.6577 41.1919 33.7L39.9295 34.589ZM41.0322 35.0706V36.6145C41.5247 36.6145 42.0797 36.5172 42.5672 36.2158C43.0866 35.8946 43.5633 35.2979 43.5633 34.4783H42.0194H40.4754C40.4754 34.2688 40.5362 34.0655 40.6422 33.8961C40.7435 33.7342 40.8626 33.6392 40.9431 33.5894C41.0898 33.4987 41.1513 33.5266 41.0322 33.5266V35.0706ZM42.0194 34.4783H43.5633C43.5633 34.1757 43.498 33.8125 43.2825 33.4599C43.0724 33.116 42.7901 32.898 42.5472 32.7606C42.1269 32.5228 41.6223 32.4198 41.2417 32.3517L40.9696 33.8715L40.6975 35.3914C40.8694 35.4221 40.9784 35.4469 41.0459 35.4659C41.1196 35.4865 41.0951 35.487 41.0268 35.4483C40.9489 35.4043 40.7827 35.2913 40.6475 35.07C40.507 34.84 40.4754 34.6171 40.4754 34.4783H42.0194ZM40.9696 33.8715L41.2421 32.3518L40.5439 32.2266L40.2714 33.7463L39.9989 35.2661L40.6971 35.3913L40.9696 33.8715ZM40.2714 33.7463L40.5415 32.2262C40.0307 32.1354 39.813 31.9896 39.7417 31.9226C39.7113 31.894 39.7022 31.8759 39.6974 31.8644C39.6919 31.8513 39.6774 31.8106 39.6774 31.7239H38.1334H36.5894C36.5894 32.6624 36.9354 33.5227 37.6266 34.1725C38.2788 34.7856 39.1301 35.1117 40.0013 35.2665L40.2714 33.7463ZM38.1334 31.7239H39.6774C39.6774 31.5169 39.7466 31.3915 39.89 31.2799C40.0665 31.1426 40.4221 30.9903 40.9889 30.9903V29.4463V27.9023C39.904 27.9023 38.8319 28.1906 37.9936 28.8429C37.1221 29.5211 36.5894 30.5345 36.5894 31.7239H38.1334ZM40.9889 29.4463V30.9903C41.5073 30.9903 41.8495 31.0833 42.0472 31.1813C42.2277 31.2707 42.272 31.3521 42.2891 31.3932L43.7143 30.7994L45.1396 30.2055C44.4289 28.4999 42.6432 27.9023 40.9889 27.9023V29.4463ZM43.7143 30.7994L42.2877 31.3897C42.2858 31.3852 42.2757 31.3594 42.2674 31.3192C42.2589 31.2783 42.257 31.2452 42.257 31.2279H43.801H45.345C45.345 30.8503 45.2698 30.5203 45.141 30.209L43.7143 30.7994ZM43.801 31.2279H42.257C42.257 31.0644 42.3272 30.8343 42.5216 30.6548C42.7041 30.4864 42.8836 30.4646 42.939 30.4641L42.9535 32.008L42.9681 33.5519C43.5339 33.5466 44.1371 33.3659 44.6157 32.9242C45.1063 32.4715 45.345 31.8537 45.345 31.2279H43.801ZM42.9535 32.008V30.464C42.9173 30.464 43.0125 30.4589 43.1454 30.5314C43.2754 30.6022 43.3166 30.6795 43.2873 30.6354L42.0001 31.488L40.7129 32.3405C40.9292 32.6672 41.2304 33.0045 41.6674 33.2427C42.1073 33.4825 42.5564 33.552 42.9535 33.552V32.008ZM42.0001 31.488L43.293 30.644C43.0347 30.2482 42.6821 29.9257 42.235 29.7186C41.8072 29.5205 41.378 29.4673 41.013 29.4673V31.0112V32.5552C41.0861 32.5552 41.0373 32.567 40.937 32.5206C40.8855 32.4967 40.8343 32.4638 40.7892 32.4238C40.745 32.3847 40.719 32.35 40.7072 32.3319L42.0001 31.488ZM41.013 31.0112V29.4673C40.5239 29.4673 39.9624 29.5723 39.4774 29.9167C38.9511 30.2904 38.6118 30.8884 38.6118 31.5746H40.1558H41.6998C41.6998 31.7396 41.6602 31.9159 41.5724 32.0807C41.4854 32.244 41.3704 32.3597 41.2652 32.4345C41.0668 32.5754 40.9338 32.5552 41.013 32.5552V31.0112ZM40.1558 31.5746H38.6118C38.6118 31.9143 38.6979 32.2812 38.9172 32.62C39.1264 32.9431 39.3976 33.1491 39.6263 33.2797C40.0363 33.5137 40.5149 33.6168 40.8734 33.6815L41.1478 32.1621L41.4221 30.6427C41.2778 30.6166 41.1863 30.5949 41.1313 30.5789C41.0714 30.5615 41.0945 30.5621 41.1573 30.5979C41.2247 30.6364 41.3779 30.7386 41.5094 30.9418C41.651 31.1606 41.6998 31.3914 41.6998 31.5746H40.1558ZM41.1478 32.1621L40.8753 33.6819L41.5735 33.807L41.846 32.2873L42.1185 30.7676L41.4203 30.6424L41.1478 32.1621ZM41.846 32.2873L41.5715 33.8067C42.1957 33.9194 42.4154 34.0675 42.4685 34.1154C42.4784 34.1244 42.4804 34.1279 42.479 34.1259C42.4774 34.1237 42.4769 34.1222 42.4778 34.1244C42.4791 34.1276 42.4978 34.1742 42.4978 34.2953H44.0418H45.5858C45.5858 33.3715 45.2777 32.492 44.5389 31.8243C43.8672 31.2174 42.9891 30.9248 42.1205 30.7679L41.846 32.2873ZM44.0418 34.2953H42.4978C42.4978 34.5675 42.4125 34.6915 42.2917 34.7861C42.127 34.9151 41.7431 35.0915 41.0081 35.0915V36.6355V38.1795C42.1897 38.1795 43.3226 37.901 44.1956 37.2173C45.1125 36.4993 45.5858 35.4532 45.5858 34.2953H44.0418ZM46.154 32.2054H44.61V33.7494H46.154V32.2054ZM48.6002 32.2054V33.7494H50.1441V32.2054H48.6002ZM48.6002 33.8282H50.1441V32.2842H48.6002V33.8282ZM46.154 33.8282V32.2842H44.61V33.8282H46.154ZM45.1331 36.6355V35.0915C45.1146 35.0915 45.3063 35.0934 45.4944 35.29C45.6731 35.4767 45.6563 35.6393 45.6563 35.5665H44.1123H42.5683C42.5683 36.1775 42.7368 36.8747 43.2634 37.4249C43.7994 37.9851 44.5016 38.1795 45.1331 38.1795V36.6355ZM44.1123 35.5665H45.6563V30.5153H44.1123H42.5683V35.5665H44.1123ZM44.1123 30.5153H45.6563C45.6563 30.4425 45.6731 30.6051 45.4944 30.7918C45.3063 30.9884 45.1146 30.9903 45.1331 30.9903V29.4463V27.9023C44.5016 27.9023 43.7994 28.0967 43.2634 28.6569C42.7368 29.2071 42.5683 29.9043 42.5683 30.5153H44.1123ZM45.1331 29.4463V30.9903C45.1516 30.9903 44.9599 30.9884 44.7718 30.7918C44.5931 30.6051 44.61 30.4425 44.61 30.5153H46.154H47.698C47.698 29.9043 47.5294 29.2071 47.0028 28.6569C46.4668 28.0967 45.7647 27.9023 45.1331 27.9023V29.4463ZM46.154 30.5153H44.61V32.2054H46.154H47.698V30.5153H46.154ZM46.154 32.2054V33.7494H48.6002V32.2054V30.6615H46.154V32.2054ZM48.6002 32.2054H50.1441V30.5153H48.6002H47.0562V32.2054H48.6002ZM48.6002 30.5153H50.1441C50.1441 30.4425 50.161 30.6051 49.9823 30.7918C49.7942 30.9884 49.6025 30.9903 49.621 30.9903V29.4463V27.9023C48.9895 27.9023 48.2873 28.0967 47.7513 28.6569C47.2247 29.2071 47.0562 29.9043 47.0562 30.5153H48.6002ZM49.621 29.4463V30.9903C49.6395 30.9903 49.4478 30.9884 49.2597 30.7918C49.081 30.6051 49.0979 30.4425 49.0979 30.5153H50.6418H52.1858C52.1858 29.9043 52.0173 29.2071 51.4907 28.6569C50.9547 28.0967 50.2526 27.9023 49.621 27.9023V29.4463ZM50.6418 30.5153H49.0979V35.5665H50.6418H52.1858V30.5153H50.6418ZM50.6418 35.5665H49.0979C49.0979 35.6393 49.081 35.4767 49.2597 35.29C49.4478 35.0934 49.6395 35.0915 49.621 35.0915V36.6355V38.1795C50.2526 38.1795 50.9547 37.9851 51.4907 37.4249C52.0173 36.8747 52.1858 36.1775 52.1858 35.5665H50.6418ZM49.621 36.6355V35.0915C49.6025 35.0915 49.7942 35.0934 49.9823 35.29C50.161 35.4767 50.1441 35.6393 50.1441 35.5665H48.6002H47.0562C47.0562 36.1775 47.2247 36.8747 47.7513 37.4249C48.2873 37.9851 48.9895 38.1795 49.621 38.1795V36.6355ZM48.6002 35.5665H50.1441V33.8282H48.6002H47.0562V35.5665H48.6002ZM48.6002 33.8282V32.2842H46.154V33.8282V35.3722H48.6002V33.8282ZM46.154 33.8282H44.61V35.5665H46.154H47.698V33.8282H46.154ZM46.154 35.5665H44.61C44.61 35.6393 44.5931 35.4767 44.7718 35.29C44.9599 35.0934 45.1516 35.0915 45.1331 35.0915V36.6355V38.1795C45.7647 38.1795 46.4668 37.9851 47.0028 37.4249C47.5294 36.8747 47.698 36.1775 47.698 35.5665H46.154Z" fill="white" mask="url(#path-6-outside-1_3612_598)"/>
<path d="M22.0686 0.00923817C22.069 0.00413616 22.0733 0.000258887 22.0785 0.000578242C26.6703 0.287997 30.1591 4.25263 29.8717 8.84444C25.2799 8.55702 21.7812 4.60105 22.0686 0.00923817Z" fill="white"/>
<path d="M35.2074 0.853271C35.206 0.848354 35.2009 0.845501 35.196 0.846899C30.7705 2.10497 28.2054 6.72127 29.4635 11.1467C33.8889 9.88865 36.4655 5.27872 35.2074 0.853271Z" fill="white"/>
<path d="M22.0686 0.00923817C22.069 0.00413616 22.0733 0.000258887 22.0785 0.000578242C26.6703 0.287997 30.1591 4.25263 29.8717 8.84444C25.2799 8.55702 21.7812 4.60105 22.0686 0.00923817Z" fill="#DC3115"/>
<path d="M35.2074 0.853271C35.206 0.848354 35.2009 0.845501 35.196 0.846899C30.7705 2.10497 28.2054 6.72127 29.4635 11.1467C33.8889 9.88865 36.4655 5.27872 35.2074 0.853271Z" fill="#DC3115"/>
<path d="M27.1496 10.1161C28.8173 10.4656 30.0727 11.2194 30.8293 12.288C31.5879 13.3594 31.8177 14.7086 31.5077 16.1887C31.1037 18.1167 29.9519 19.4021 28.2417 19.8666L29.6717 24.5944L29.6715 24.5953C29.7828 24.9679 29.7675 25.3524 29.5204 25.6213C29.273 25.89 28.8904 25.9373 28.511 25.8578L26.9999 25.5412C26.731 25.4848 26.4914 25.3796 26.2974 25.2034C26.1029 25.0268 25.9737 24.7972 25.8964 24.5267L24.5099 19.7672L22.8085 19.4108L21.9927 23.3048C21.925 23.628 21.7748 23.9067 21.5147 24.0766C21.2547 24.2464 20.94 24.2715 20.617 24.2039L19.2788 23.9235C18.9558 23.8558 18.6777 23.7064 18.5077 23.4466C18.3377 23.1865 18.312 22.871 18.3797 22.5478L21.0053 10.0162C21.0731 9.69299 21.2231 9.41517 21.4831 9.24522C21.7432 9.07527 22.0579 9.04938 22.381 9.11706L27.1496 10.1161ZM23.4422 16.3866L25.1741 16.7495C25.9994 16.9224 26.5916 16.8679 26.9983 16.6528C27.392 16.4444 27.6707 16.0535 27.8049 15.4129C27.9399 14.7681 27.8446 14.2787 27.5656 13.912C27.2798 13.5366 26.7593 13.2342 25.932 13.0609L24.2144 12.701L23.4422 16.3866Z" fill="white" stroke="white" stroke-width="0.625412"/>
<path d="M14.1027 9.91202C15.8144 9.91202 17.1983 10.4417 18.1555 11.3778C19.1126 12.3141 19.6135 13.6284 19.6135 15.1396C19.6134 16.6594 19.1023 17.9671 18.1291 18.8944C17.1571 19.8207 15.7553 20.3377 14.0256 20.3378H11.7599V23.8778C11.7599 24.2081 11.6701 24.5117 11.4504 24.7314C11.2308 24.9508 10.9279 25.0399 10.5978 25.04H9.23065C8.90063 25.0399 8.59775 24.9508 8.37811 24.7314C8.15841 24.5117 8.06854 24.2081 8.06854 23.8778V11.0741C8.06858 10.7439 8.15845 10.4413 8.37811 10.2216C8.59778 10.0019 8.90046 9.91206 9.23065 9.91202H14.1027ZM11.7599 17.2558H13.5295C14.3493 17.2558 14.9145 17.0248 15.2746 16.6698C15.6346 16.3149 15.8302 15.7965 15.8303 15.1396C15.8303 14.4788 15.6354 13.9662 15.2756 13.6181C14.9147 13.269 14.3449 13.0439 13.5148 13.0439H11.7599V17.2558Z" fill="white" stroke="white" stroke-width="0.625412"/>
<path d="M38.7698 9.24385C39.0929 9.17556 39.4085 9.20073 39.6689 9.37026C39.929 9.53979 40.0788 9.81771 40.1471 10.1406L40.3185 10.9518C40.3867 11.2746 40.3621 11.5895 40.1928 11.8497C40.0233 12.1101 39.7449 12.2607 39.4218 12.329L33.9976 13.4753L34.5827 16.2442L39.5148 15.2019C39.838 15.1337 40.1535 15.1588 40.4139 15.3284C40.6743 15.4979 40.825 15.7763 40.8933 16.0994L41.0645 16.9097C41.1328 17.2328 41.1076 17.5484 40.9381 17.8087C40.7685 18.0691 40.4901 18.2198 40.167 18.2881L35.2349 19.3303L35.8214 22.106L41.2733 20.9539C41.5964 20.8856 41.912 20.9107 42.1724 21.0803C42.4327 21.2498 42.5825 21.5285 42.6508 21.8516L42.822 22.6618C42.8903 22.9849 42.8661 23.3003 42.6965 23.5607C42.527 23.821 42.2484 23.9708 41.9253 24.0391L33.9988 25.7141C33.6759 25.7823 33.3611 25.7577 33.1008 25.5884C32.8405 25.4189 32.6898 25.1405 32.6215 24.8173L29.9743 12.2903C29.906 11.9672 29.9314 11.6525 30.1009 11.3922C30.2704 11.1318 30.548 10.9813 30.871 10.913L38.7698 9.24385Z" fill="white" stroke="white" stroke-width="0.625412"/>
<path d="M47.6112 9.91202C49.3228 9.91202 50.7068 10.4417 51.6639 11.3778C52.6211 12.3141 53.1219 13.6284 53.1219 15.1396C53.1219 16.6594 52.6108 17.9671 51.6376 18.8944C50.6656 19.8207 49.2638 20.3377 47.5341 20.3378H45.2684V23.8778C45.2684 24.2081 45.1786 24.5117 44.9589 24.7314C44.7392 24.9508 44.4363 25.0399 44.1063 25.04H42.7391C42.4091 25.0399 42.1062 24.9508 41.8866 24.7314C41.6669 24.5117 41.577 24.2081 41.577 23.8778V11.0741C41.5771 10.7439 41.6669 10.4413 41.8866 10.2216C42.1063 10.0019 42.4089 9.91206 42.7391 9.91202H47.6112ZM45.2684 17.2558H47.038C47.8578 17.2558 48.4229 17.0248 48.7831 16.6698C49.1431 16.3149 49.3387 15.7965 49.3387 15.1396C49.3387 14.4788 49.1439 13.9662 48.7841 13.6181C48.4232 13.269 47.8534 13.0439 47.0233 13.0439H45.2684V17.2558Z" fill="white" stroke="white" stroke-width="0.625412"/>
</svg>
